<svg xmlns="http://www.w3.org/2000/svg" viewBox="0 0 48 48"><title>Scale</title><g id="Scale"><path d="M39,0H9A7,7,0,0,0,2,7V41a7,7,0,0,0,7,7H39a7,7,0,0,0,7-7V7A7,7,0,0,0,39,0Zm5,41a5,5,0,0,1-5,5H9a5,5,0,0,1-5-5V7A5,5,0,0,1,9,2H39a5,5,0,0,1,5,5Z"/><path d="M38,4H33a3,3,0,0,0-2.93,2.37,9,9,0,0,0-12.14,0A3,3,0,0,0,15,4H10A4,4,0,0,0,6,8V40a4,4,0,0,0,4,4H38a4,4,0,0,0,4-4V8A4,4,0,0,0,38,4ZM29.58,17.21a1,1,0,0,0-1.37,1.37A7,7,0,0,1,25,19.92a1,1,0,0,0-2,0,7,7,0,0,1-3.23-1.34,1,1,0,0,0-1.37-1.37A7,7,0,0,1,17.08,14a1,1,0,0,0,0-2,7,7,0,0,1,1.34-3.23,1,1,0,0,0,1.37-1.37A7,7,0,0,1,23,6.08a1,1,0,0,0,2,0,7,7,0,0,1,3.23,1.34,1,1,0,0,0,1.37,1.37A7,7,0,0,1,30.92,12a1,1,0,0,0,0,2A7,7,0,0,1,29.58,17.21ZM40,40a2,2,0,0,1-2,2H10a2,2,0,0,1-2-2V8a2,2,0,0,1,2-2c6.51,0,6-.68,6,2.9C11.3,18,23.17,26.57,30.37,19.37A9,9,0,0,0,32,8.9V7a1,1,0,0,1,1-1h5a2,2,0,0,1,2,2Z"/><path d="M24,11a2,2,0,0,0-1,3.72V17a1,1,0,0,0,2,0V14.72A2,2,0,0,0,24,11Z"/></g></svg>